<svg width="189" height="108" viewBox="0 0 189 108" fill="none" xmlns="http://www.w3.org/2000/svg">
<rect x="121" y="2" width="66" height="37" rx="18.5" fill="#AEFF00" stroke="white" stroke-width="4"/>
<rect x="155" y="10" width="24" height="22" rx="11" fill="white"/>
<path d="M24.9205 17.6136C24.7727 17.0114 24.5398 16.483 24.2216 16.0284C23.9034 15.5625 23.5057 15.1705 23.0284 14.8523C22.5625 14.5227 22.017 14.2784 21.392 14.1193C20.7784 13.9489 20.1023 13.8636 19.3636 13.8636C17.7727 13.8636 16.4148 14.2443 15.2898 15.0057C14.1761 15.767 13.3239 16.8636 12.733 18.2955C12.1534 19.7273 11.8636 21.4545 11.8636 23.4773C11.8636 25.5227 12.142 27.2727 12.6989 28.7273C13.2557 30.1818 14.0852 31.2955 15.1875 32.0682C16.2898 32.8409 17.6591 33.2273 19.2955 33.2273C20.7386 33.2273 21.9375 33.017 22.892 32.5966C23.858 32.1761 24.5795 31.5795 25.0568 30.8068C25.5341 30.0341 25.7727 29.125 25.7727 28.0795L27.4091 28.25H19.4318V21.5H34.9091V26.3409C34.9091 29.5227 34.233 32.2443 32.8807 34.5057C31.5398 36.7557 29.6875 38.483 27.3239 39.6875C24.9716 40.8807 22.2727 41.4773 19.2273 41.4773C15.8295 41.4773 12.8466 40.7557 10.2784 39.3125C7.71023 37.8693 5.70455 35.8125 4.26136 33.142C2.82955 30.4716 2.11364 27.2955 2.11364 23.6136C2.11364 20.7273 2.55114 18.1705 3.42614 15.9432C4.3125 13.7159 5.53977 11.8352 7.10795 10.3011C8.67614 8.75568 10.4886 7.59091 12.5455 6.80682C14.6023 6.01136 16.8068 5.61364 19.1591 5.61364C21.2273 5.61364 23.1477 5.90909 24.9205 6.5C26.7045 7.07954 28.2784 7.90909 29.642 8.98864C31.017 10.0568 32.125 11.3239 32.9659 12.7898C33.8068 14.2557 34.3182 15.8636 34.5 17.6136H24.9205ZM52.9699 41.4773C50.1745 41.4773 47.7654 40.9432 45.7427 39.875C43.7313 38.7955 42.1802 37.25 41.0893 35.2386C40.0097 33.2159 39.4699 30.7955 39.4699 27.9773C39.4699 25.2727 40.0154 22.9091 41.1063 20.8864C42.1972 18.8636 43.737 17.2898 45.7256 16.1648C47.7143 15.0398 50.0609 14.4773 52.7654 14.4773C54.7427 14.4773 56.5324 14.7841 58.1347 15.3977C59.737 16.0114 61.1063 16.9034 62.2427 18.0739C63.379 19.233 64.254 20.642 64.8677 22.3011C65.4813 23.9602 65.7881 25.8295 65.7881 27.9091V30.0909H42.4018V24.9091H57.129C57.1177 24.1591 56.9245 23.5 56.5495 22.9318C56.1859 22.3523 55.6915 21.9034 55.0665 21.5852C54.4529 21.2557 53.754 21.0909 52.9699 21.0909C52.2086 21.0909 51.5097 21.2557 50.8734 21.5852C50.237 21.9034 49.7256 22.3466 49.3393 22.9148C48.9643 23.483 48.7654 24.1477 48.7427 24.9091V30.5C48.7427 31.3409 48.9188 32.0909 49.2711 32.75C49.6234 33.4091 50.129 33.9261 50.7881 34.3011C51.4472 34.6761 52.2427 34.8636 53.1745 34.8636C53.8222 34.8636 54.4131 34.7727 54.9472 34.5909C55.4927 34.4091 55.9586 34.1477 56.3449 33.8068C56.7313 33.4545 57.0154 33.0341 57.1972 32.5455H65.7881C65.4927 34.3636 64.7938 35.9432 63.6915 37.2841C62.5893 38.6136 61.129 39.6477 59.3109 40.3864C57.504 41.1136 55.3904 41.4773 52.9699 41.4773ZM86.2012 14.8182V21.6364H68.9512V14.8182H86.2012ZM72.2922 8.54545H81.7012V32.5795C81.7012 32.9432 81.7637 33.25 81.8887 33.5C82.0137 33.7386 82.2069 33.9205 82.4683 34.0455C82.7297 34.1591 83.0649 34.2159 83.474 34.2159C83.7581 34.2159 84.0876 34.1818 84.4626 34.1136C84.849 34.0455 85.1331 33.9886 85.3149 33.9432L86.6785 40.5568C86.2581 40.6818 85.6558 40.8352 84.8717 41.017C84.099 41.1989 83.1785 41.3182 82.1103 41.375C79.9512 41.4886 78.1387 41.267 76.6728 40.7102C75.2069 40.142 74.1047 39.25 73.366 38.0341C72.6274 36.8182 72.2694 35.2955 72.2922 33.4659V8.54545ZM24.9205 61.6136C24.7727 61.0114 24.5398 60.483 24.2216 60.0284C23.9034 59.5625 23.5057 59.1705 23.0284 58.8523C22.5625 58.5227 22.017 58.2784 21.392 58.1193C20.7784 57.9489 20.1023 57.8636 19.3636 57.8636C17.7727 57.8636 16.4148 58.2443 15.2898 59.0057C14.1761 59.767 13.3239 60.8636 12.733 62.2955C12.1534 63.7273 11.8636 65.4545 11.8636 67.4773C11.8636 69.5227 12.142 71.2727 12.6989 72.7273C13.2557 74.1818 14.0852 75.2955 15.1875 76.0682C16.2898 76.8409 17.6591 77.2273 19.2955 77.2273C20.7386 77.2273 21.9375 77.017 22.892 76.5966C23.858 76.1761 24.5795 75.5795 25.0568 74.8068C25.5341 74.0341 25.7727 73.125 25.7727 72.0795L27.4091 72.25H19.4318V65.5H34.9091V70.3409C34.9091 73.5227 34.233 76.2443 32.8807 78.5057C31.5398 80.7557 29.6875 82.483 27.3239 83.6875C24.9716 84.8807 22.2727 85.4773 19.2273 85.4773C15.8295 85.4773 12.8466 84.7557 10.2784 83.3125C7.71023 81.8693 5.70455 79.8125 4.26136 77.142C2.82955 74.4716 2.11364 71.2955 2.11364 67.6136C2.11364 64.7273 2.55114 62.1705 3.42614 59.9432C4.3125 57.7159 5.53977 55.8352 7.10795 54.3011C8.67614 52.7557 10.4886 51.5909 12.5455 50.8068C14.6023 50.0114 16.8068 49.6136 19.1591 49.6136C21.2273 49.6136 23.1477 49.9091 24.9205 50.5C26.7045 51.0795 28.2784 51.9091 29.642 52.9886C31.017 54.0568 32.125 55.3239 32.9659 56.7898C33.8068 58.2557 34.3182 59.8636 34.5 61.6136H24.9205ZM40.4245 85V58.8182H49.5609V63.7955H49.8336C50.3109 61.9545 51.0665 60.608 52.1006 59.7557C53.1461 58.9034 54.3677 58.4773 55.7654 58.4773C56.1745 58.4773 56.5779 58.5114 56.9756 58.5795C57.3847 58.6364 57.7768 58.7216 58.1518 58.8352V66.8636C57.6859 66.7045 57.112 66.5852 56.4302 66.5057C55.7484 66.4261 55.1631 66.3864 54.6745 66.3864C53.754 66.3864 52.9245 66.5966 52.1859 67.017C51.4586 67.4261 50.8847 68.0057 50.4643 68.7557C50.0438 69.4943 49.8336 70.3636 49.8336 71.3636V85H40.4245ZM73.3106 85.4773C70.4697 85.4773 68.0379 84.9148 66.0152 83.7898C63.9924 82.6534 62.4413 81.0739 61.3618 79.0511C60.2822 77.017 59.7424 74.6591 59.7424 71.9773C59.7424 69.2955 60.2822 66.9432 61.3618 64.9205C62.4413 62.8864 63.9924 61.3068 66.0152 60.1818C68.0379 59.0455 70.4697 58.4773 73.3106 58.4773C76.1515 58.4773 78.5834 59.0455 80.6061 60.1818C82.6288 61.3068 84.1799 62.8864 85.2595 64.9205C86.339 66.9432 86.8788 69.2955 86.8788 71.9773C86.8788 74.6591 86.339 77.017 85.2595 79.0511C84.1799 81.0739 82.6288 82.6534 80.6061 83.7898C78.5834 84.9148 76.1515 85.4773 73.3106 85.4773ZM73.3788 78.5227C74.1743 78.5227 74.8618 78.2557 75.4413 77.7216C76.0209 77.1875 76.4697 76.4261 76.7879 75.4375C77.1061 74.4489 77.2652 73.2727 77.2652 71.9091C77.2652 70.5341 77.1061 69.358 76.7879 68.3807C76.4697 67.392 76.0209 66.6307 75.4413 66.0966C74.8618 65.5625 74.1743 65.2955 73.3788 65.2955C72.5379 65.2955 71.8163 65.5625 71.214 66.0966C70.6118 66.6307 70.1515 67.392 69.8334 68.3807C69.5152 69.358 69.3561 70.5341 69.3561 71.9091C69.3561 73.2727 69.5152 74.4489 69.8334 75.4375C70.1515 76.4261 70.6118 77.1875 71.214 77.7216C71.8163 78.2557 72.5379 78.5227 73.3788 78.5227ZM95.8246 85L89.2791 58.8182H98.6882L101.688 74.7727H101.893L105.234 58.8182H114.37L117.847 74.6364H118.052L120.916 58.8182H130.325L123.779 85H113.62L109.938 70.9545H109.666L105.984 85H95.8246ZM149.762 58.8182V65.6364H132.512V58.8182H149.762ZM135.853 52.5455H145.262V76.5795C145.262 76.9432 145.324 77.25 145.449 77.5C145.574 77.7386 145.768 77.9205 146.029 78.0455C146.29 78.1591 146.626 78.2159 147.035 78.2159C147.319 78.2159 147.648 78.1818 148.023 78.1136C148.41 78.0455 148.694 77.9886 148.876 77.9432L150.239 84.5568C149.819 84.6818 149.216 84.8352 148.432 85.017C147.66 85.1989 146.739 85.3182 145.671 85.375C143.512 85.4886 141.699 85.267 140.233 84.7102C138.768 84.142 137.665 83.25 136.927 82.0341C136.188 80.8182 135.83 79.2955 135.853 77.4659V52.5455ZM164.533 70.2727V85H155.124V50.0909H164.192V63.7955H164.465C165.056 62.125 166.039 60.8239 167.414 59.892C168.789 58.9489 170.442 58.4773 172.374 58.4773C174.226 58.4773 175.834 58.8977 177.198 59.7386C178.573 60.5795 179.635 61.7386 180.385 63.2159C181.147 64.6932 181.522 66.3864 181.51 68.2955V85H172.101V70.2727C172.113 68.9773 171.789 67.9602 171.13 67.2216C170.482 66.483 169.556 66.1136 168.351 66.1136C167.59 66.1136 166.919 66.2841 166.34 66.625C165.772 66.9545 165.328 67.4318 165.01 68.0568C164.703 68.6705 164.544 69.4091 164.533 70.2727Z" fill="black"/>
<path d="M6.85547 104L4.33203 94.7273H6.93395L8.37074 100.957H8.45526L9.95242 94.7273H12.506L14.0273 100.921H14.1058L15.5185 94.7273H18.1143L15.5969 104H12.8743L11.2805 98.1683H11.1658L9.57209 104H6.85547ZM23.4797 104.181C22.5258 104.181 21.7048 103.988 21.0166 103.602C20.3324 103.211 19.8052 102.66 19.4349 101.947C19.0647 101.231 18.8795 100.384 18.8795 99.4059C18.8795 98.4521 19.0647 97.6149 19.4349 96.8945C19.8052 96.1741 20.3264 95.6127 20.9985 95.2102C21.6746 94.8078 22.4675 94.6065 23.377 94.6065C23.9888 94.6065 24.5583 94.7051 25.0855 94.9023C25.6167 95.0955 26.0796 95.3873 26.474 95.7777C26.8724 96.1681 27.1823 96.6591 27.4037 97.2507C27.625 97.8383 27.7357 98.5265 27.7357 99.3153V100.022H19.9058V98.4279H25.3149C25.3149 98.0576 25.2344 97.7296 25.0734 97.4439C24.9124 97.1581 24.6891 96.9348 24.4033 96.7738C24.1216 96.6088 23.7936 96.5263 23.4193 96.5263C23.0289 96.5263 22.6828 96.6168 22.3809 96.7979C22.0831 96.975 21.8497 97.2145 21.6807 97.5163C21.5116 97.8142 21.4251 98.1462 21.4211 98.5124V100.028C21.4211 100.487 21.5056 100.883 21.6746 101.217C21.8477 101.551 22.0912 101.809 22.4051 101.99C22.719 102.171 23.0913 102.261 23.5219 102.261C23.8077 102.261 24.0693 102.221 24.3067 102.141C24.5442 102.06 24.7474 101.939 24.9165 101.778C25.0855 101.617 25.2143 101.42 25.3028 101.187L27.6814 101.344C27.5606 101.915 27.3131 102.414 26.9388 102.841C26.5686 103.263 26.0896 103.594 25.502 103.831C24.9185 104.064 24.2443 104.181 23.4797 104.181ZM29.4623 104V91.6364H32.034V96.2848H32.1125C32.2252 96.0353 32.3882 95.7817 32.6015 95.5241C32.8188 95.2625 33.1005 95.0452 33.4466 94.8722C33.7968 94.6951 34.2314 94.6065 34.7506 94.6065C35.4268 94.6065 36.0506 94.7836 36.6221 95.1378C37.1936 95.4879 37.6504 96.0172 37.9925 96.7255C38.3345 97.4298 38.5056 98.3132 38.5056 99.3757C38.5056 100.41 38.3386 101.283 38.0045 101.996C37.6745 102.704 37.2238 103.241 36.6523 103.608C36.0848 103.97 35.4489 104.151 34.7446 104.151C34.2455 104.151 33.8209 104.068 33.4708 103.903C33.1247 103.738 32.8409 103.531 32.6196 103.282C32.3982 103.028 32.2292 102.772 32.1125 102.515H31.9978V104H29.4623ZM31.9797 99.3636C31.9797 99.915 32.0561 100.396 32.2091 100.806C32.362 101.217 32.5834 101.537 32.8731 101.766C33.1629 101.992 33.5151 102.104 33.9296 102.104C34.3482 102.104 34.7023 101.99 34.9921 101.76C35.2819 101.527 35.5012 101.205 35.6501 100.794C35.8031 100.38 35.8795 99.9029 35.8795 99.3636C35.8795 98.8284 35.8051 98.3575 35.6562 97.951C35.5073 97.5445 35.2879 97.2266 34.9981 96.9972C34.7084 96.7678 34.3522 96.6531 33.9296 96.6531C33.511 96.6531 33.1569 96.7637 32.8671 96.9851C32.5814 97.2064 32.362 97.5204 32.2091 97.9268C32.0561 98.3333 31.9797 98.8123 31.9797 99.3636ZM47.9368 97.3714L45.5824 97.5163C45.5421 97.3151 45.4556 97.134 45.3228 96.973C45.19 96.808 45.0149 96.6772 44.7976 96.5806C44.5843 96.48 44.3287 96.4297 44.0309 96.4297C43.6325 96.4297 43.2964 96.5142 43.0227 96.6832C42.7491 96.8482 42.6122 97.0696 42.6122 97.3473C42.6122 97.5687 42.7008 97.7558 42.8778 97.9087C43.0549 98.0617 43.3588 98.1844 43.7894 98.277L45.4677 98.6151C46.3692 98.8002 47.0413 99.098 47.484 99.5085C47.9267 99.919 48.1481 100.458 48.1481 101.126C48.1481 101.734 47.969 102.267 47.6108 102.726C47.2566 103.185 46.7697 103.543 46.1499 103.801C45.5341 104.054 44.8237 104.181 44.0188 104.181C42.7913 104.181 41.8133 103.926 41.0849 103.414C40.3604 102.899 39.9358 102.199 39.8111 101.314L42.3406 101.181C42.417 101.555 42.6022 101.841 42.896 102.038C43.1897 102.231 43.5661 102.328 44.0249 102.328C44.4756 102.328 44.8378 102.241 45.1115 102.068C45.3892 101.891 45.5301 101.664 45.5341 101.386C45.5301 101.153 45.4315 100.961 45.2383 100.812C45.0451 100.66 44.7473 100.543 44.3448 100.462L42.739 100.142C41.8335 99.9613 41.1593 99.6474 40.7166 99.2006C40.2779 98.7539 40.0586 98.1844 40.0586 97.4922C40.0586 96.8965 40.2196 96.3834 40.5415 95.9528C40.8675 95.5221 41.3243 95.1901 41.9119 94.9567C42.5036 94.7232 43.1958 94.6065 43.9886 94.6065C45.1598 94.6065 46.0814 94.854 46.7536 95.3491C47.4297 95.8441 47.8241 96.5182 47.9368 97.3714ZM49.7675 104V94.7273H52.3392V104H49.7675ZM51.0594 93.532C50.6771 93.532 50.349 93.4052 50.0754 93.1516C49.8057 92.8941 49.6709 92.5862 49.6709 92.228C49.6709 91.8738 49.8057 91.57 50.0754 91.3164C50.349 91.0588 50.6771 90.93 51.0594 90.93C51.4417 90.93 51.7677 91.0588 52.0374 91.3164C52.3111 91.57 52.4479 91.8738 52.4479 92.228C52.4479 92.5862 52.3111 92.8941 52.0374 93.1516C51.7677 93.4052 51.4417 93.532 51.0594 93.532ZM59.3315 94.7273V96.6591H53.7473V94.7273H59.3315ZM55.0151 92.5057H57.5868V101.151C57.5868 101.388 57.623 101.573 57.6955 101.706C57.7679 101.835 57.8685 101.925 57.9973 101.978C58.1301 102.03 58.2831 102.056 58.4561 102.056C58.5769 102.056 58.6976 102.046 58.8184 102.026C58.9391 102.002 59.0317 101.984 59.0961 101.972L59.5005 103.885C59.3717 103.926 59.1906 103.972 58.9572 104.024C58.7238 104.08 58.44 104.115 58.106 104.127C57.4862 104.151 56.9429 104.068 56.476 103.879C56.0132 103.69 55.653 103.396 55.3954 102.998C55.1378 102.599 55.0111 102.096 55.0151 101.489V92.5057ZM65.133 104.181C64.1792 104.181 63.3581 103.988 62.6699 103.602C61.9857 103.211 61.4585 102.66 61.0882 101.947C60.718 101.231 60.5328 100.384 60.5328 99.4059C60.5328 98.4521 60.718 97.6149 61.0882 96.8945C61.4585 96.1741 61.9797 95.6127 62.6518 95.2102C63.3279 94.8078 64.1208 94.6065 65.0304 94.6065C65.6421 94.6065 66.2116 94.7051 66.7388 94.9023C67.2701 95.0955 67.7329 95.3873 68.1273 95.7777C68.5257 96.1681 68.8356 96.6591 69.057 97.2507C69.2784 97.8383 69.389 98.5265 69.389 99.3153V100.022H61.5591V98.4279H66.9682C66.9682 98.0576 66.8877 97.7296 66.7267 97.4439C66.5658 97.1581 66.3424 96.9348 66.0566 96.7738C65.7749 96.6088 65.4469 96.5263 65.0726 96.5263C64.6822 96.5263 64.3361 96.6168 64.0343 96.7979C63.7364 96.975 63.503 97.2145 63.334 97.5163C63.165 97.8142 63.0784 98.1462 63.0744 98.5124V100.028C63.0744 100.487 63.1589 100.883 63.3279 101.217C63.501 101.551 63.7445 101.809 64.0584 101.99C64.3723 102.171 64.7446 102.261 65.1752 102.261C65.461 102.261 65.7226 102.221 65.96 102.141C66.1975 102.06 66.4007 101.939 66.5698 101.778C66.7388 101.617 66.8676 101.42 66.9561 101.187L69.3347 101.344C69.214 101.915 68.9664 102.414 68.5922 102.841C68.2219 103.263 67.743 103.594 67.1554 103.831C66.5718 104.064 65.8977 104.181 65.133 104.181ZM78.7825 97.3714L76.4281 97.5163C76.3878 97.3151 76.3013 97.134 76.1685 96.973C76.0357 96.808 75.8606 96.6772 75.6433 96.5806C75.43 96.48 75.1744 96.4297 74.8766 96.4297C74.4782 96.4297 74.1421 96.5142 73.8684 96.6832C73.5948 96.8482 73.4579 97.0696 73.4579 97.3473C73.4579 97.5687 73.5465 97.7558 73.7235 97.9087C73.9006 98.0617 74.2045 98.1844 74.6351 98.277L76.3134 98.6151C77.2149 98.8002 77.887 99.098 78.3297 99.5085C78.7724 99.919 78.9938 100.458 78.9938 101.126C78.9938 101.734 78.8147 102.267 78.4565 102.726C78.1023 103.185 77.6154 103.543 76.9956 103.801C76.3798 104.054 75.6694 104.181 74.8645 104.181C73.637 104.181 72.659 103.926 71.9306 103.414C71.2061 102.899 70.7815 102.199 70.6568 101.314L73.1863 101.181C73.2627 101.555 73.4479 101.841 73.7417 102.038C74.0355 102.231 74.4118 102.328 74.8706 102.328C75.3213 102.328 75.6835 102.241 75.9572 102.068C76.2349 101.891 76.3758 101.664 76.3798 101.386C76.3758 101.153 76.2772 100.961 76.084 100.812C75.8908 100.66 75.593 100.543 75.1905 100.462L73.5847 100.142C72.6792 99.9613 72.005 99.6474 71.5623 99.2006C71.1236 98.7539 70.9043 98.1844 70.9043 97.4922C70.9043 96.8965 71.0653 96.3834 71.3873 95.9528C71.7132 95.5221 72.17 95.1901 72.7576 94.9567C73.3493 94.7232 74.0415 94.6065 74.8343 94.6065C76.0055 94.6065 76.9271 94.854 77.5993 95.3491C78.2754 95.8441 78.6698 96.5182 78.7825 97.3714ZM88.339 104.181C87.4857 104.181 86.7492 104.028 86.1294 103.722C85.5096 103.416 85.0327 103.002 84.6987 102.479C84.3687 101.951 84.2037 101.364 84.2037 100.716C84.2037 100.233 84.3002 99.8043 84.4934 99.43C84.6866 99.0558 84.9563 98.7116 85.3024 98.3977C85.6485 98.0798 86.051 97.7638 86.5098 97.4499L88.9064 95.8743C89.2163 95.6771 89.4437 95.4698 89.5886 95.2525C89.7335 95.0311 89.8059 94.7917 89.8059 94.5341C89.8059 94.2886 89.7073 94.0612 89.5101 93.8519C89.3129 93.6426 89.0332 93.54 88.671 93.544C88.4295 93.544 88.2202 93.5984 88.0431 93.707C87.8661 93.8117 87.7272 93.9505 87.6266 94.1236C87.53 94.2926 87.4817 94.4818 87.4817 94.6911C87.4817 94.9486 87.5542 95.2102 87.699 95.4759C87.8439 95.7415 88.0371 96.0232 88.2786 96.321C88.5201 96.6148 88.7837 96.9328 89.0694 97.2749L94.9313 104H92.2509L87.361 98.5547C87.039 98.1884 86.717 97.8061 86.3951 97.4077C86.0771 97.0052 85.8115 96.5786 85.5982 96.1278C85.3849 95.6731 85.2782 95.18 85.2782 94.6488C85.2782 94.0491 85.4171 93.5098 85.6948 93.0309C85.9765 92.552 86.3709 92.1737 86.878 91.896C87.3851 91.6142 87.9767 91.4734 88.6529 91.4734C89.3129 91.4734 89.8824 91.6082 90.3613 91.8778C90.8443 92.1435 91.2145 92.4976 91.4721 92.9403C91.7337 93.379 91.8645 93.862 91.8645 94.3892C91.8645 94.9728 91.7196 95.502 91.4299 95.9769C91.1441 96.4478 90.7417 96.8704 90.2225 97.2447L87.699 99.0618C87.3569 99.3113 87.1034 99.5669 86.9384 99.8285C86.7774 100.086 86.6969 100.334 86.6969 100.571C86.6969 100.865 86.7694 101.128 86.9142 101.362C87.0591 101.595 87.2644 101.78 87.53 101.917C87.7956 102.05 88.1075 102.116 88.4657 102.116C88.9004 102.116 89.329 102.018 89.7516 101.821C90.1782 101.619 90.5646 101.336 90.9107 100.969C91.2608 100.599 91.5405 100.161 91.7498 99.6534C91.9591 99.1463 92.0637 98.5849 92.0637 97.9691H94.1948C94.1948 98.7257 94.1123 99.4079 93.9473 100.016C93.7823 100.619 93.5529 101.147 93.2591 101.597C92.9653 102.044 92.6292 102.41 92.2509 102.696C92.1301 102.772 92.0134 102.845 91.9007 102.913C91.7881 102.982 91.6713 103.054 91.5506 103.131C91.0918 103.501 90.5787 103.769 90.0112 103.934C89.4477 104.099 88.8903 104.181 88.339 104.181ZM99.9374 104V94.7273H102.388V96.3633H102.497C102.69 95.82 103.012 95.3913 103.463 95.0774C103.914 94.7635 104.453 94.6065 105.081 94.6065C105.717 94.6065 106.258 94.7655 106.705 95.0835C107.152 95.3974 107.449 95.824 107.598 96.3633H107.695C107.884 95.832 108.226 95.4074 108.721 95.0895C109.22 94.7675 109.81 94.6065 110.49 94.6065C111.355 94.6065 112.058 94.8822 112.597 95.4336C113.14 95.9809 113.412 96.7577 113.412 97.7638V104H110.846V98.271C110.846 97.7558 110.709 97.3694 110.436 97.1119C110.162 96.8543 109.82 96.7255 109.409 96.7255C108.943 96.7255 108.578 96.8744 108.317 97.1722C108.055 97.466 107.924 97.8544 107.924 98.3374V104H105.431V98.2166C105.431 97.7618 105.3 97.3996 105.039 97.13C104.781 96.8603 104.441 96.7255 104.018 96.7255C103.733 96.7255 103.475 96.7979 103.246 96.9428C103.02 97.0837 102.841 97.2829 102.708 97.5405C102.576 97.794 102.509 98.0919 102.509 98.4339V104H99.9374ZM118.087 104.175C117.496 104.175 116.969 104.072 116.506 103.867C116.043 103.658 115.677 103.35 115.407 102.944C115.141 102.533 115.009 102.022 115.009 101.41C115.009 100.895 115.103 100.462 115.292 100.112C115.482 99.7621 115.739 99.4804 116.065 99.267C116.391 99.0537 116.761 98.8928 117.176 98.7841C117.594 98.6754 118.033 98.599 118.492 98.5547C119.031 98.4983 119.466 98.446 119.796 98.3977C120.126 98.3454 120.365 98.2689 120.514 98.1683C120.663 98.0677 120.738 97.9188 120.738 97.7216V97.6854C120.738 97.303 120.617 97.0072 120.375 96.7979C120.138 96.5887 119.8 96.484 119.361 96.484C118.898 96.484 118.53 96.5866 118.256 96.7919C117.983 96.9931 117.802 97.2467 117.713 97.5526L115.335 97.3594C115.455 96.7959 115.693 96.3089 116.047 95.8984C116.401 95.4839 116.858 95.166 117.417 94.9446C117.981 94.7192 118.633 94.6065 119.373 94.6065C119.888 94.6065 120.381 94.6669 120.852 94.7876C121.327 94.9084 121.748 95.0955 122.114 95.3491C122.484 95.6026 122.776 95.9286 122.989 96.3271C123.203 96.7215 123.309 97.1944 123.309 97.7457V104H120.87V102.714H120.798C120.649 103.004 120.45 103.259 120.2 103.481C119.951 103.698 119.651 103.869 119.301 103.994C118.951 104.115 118.546 104.175 118.087 104.175ZM118.824 102.4C119.202 102.4 119.536 102.326 119.826 102.177C120.116 102.024 120.343 101.819 120.508 101.561C120.673 101.304 120.756 101.012 120.756 100.686V99.7017C120.675 99.754 120.565 99.8023 120.424 99.8466C120.287 99.8868 120.132 99.9251 119.959 99.9613C119.786 99.9935 119.613 100.024 119.44 100.052C119.267 100.076 119.11 100.098 118.969 100.118C118.667 100.163 118.403 100.233 118.178 100.33C117.953 100.426 117.778 100.557 117.653 100.722C117.528 100.883 117.466 101.084 117.466 101.326C117.466 101.676 117.592 101.943 117.846 102.129C118.104 102.31 118.43 102.4 118.824 102.4ZM125.305 104V94.7273H127.798V96.3452H127.894C128.063 95.7696 128.347 95.335 128.746 95.0412C129.144 94.7434 129.603 94.5945 130.122 94.5945C130.251 94.5945 130.39 94.6025 130.539 94.6186C130.688 94.6347 130.818 94.6568 130.931 94.685V96.967C130.81 96.9308 130.643 96.8986 130.43 96.8704C130.217 96.8422 130.021 96.8281 129.844 96.8281C129.466 96.8281 129.128 96.9106 128.83 97.0756C128.536 97.2366 128.303 97.462 128.13 97.7518C127.961 98.0415 127.876 98.3756 127.876 98.7539V104H125.305ZM134.591 101.332L134.597 98.2468H134.971L137.941 94.7273H140.893L136.903 99.3878H136.293L134.591 101.332ZM132.261 104V91.6364H134.832V104H132.261ZM138.056 104L135.327 99.9613L137.042 98.1442L141.069 104H138.056ZM145.999 104.181C145.045 104.181 144.224 103.988 143.536 103.602C142.852 103.211 142.325 102.66 141.954 101.947C141.584 101.231 141.399 100.384 141.399 99.4059C141.399 98.4521 141.584 97.6149 141.954 96.8945C142.325 96.1741 142.846 95.6127 143.518 95.2102C144.194 94.8078 144.987 94.6065 145.897 94.6065C146.508 94.6065 147.078 94.7051 147.605 94.9023C148.136 95.0955 148.599 95.3873 148.994 95.7777C149.392 96.1681 149.702 96.6591 149.923 97.2507C150.145 97.8383 150.255 98.5265 150.255 99.3153V100.022H142.425V98.4279H147.834C147.834 98.0576 147.754 97.7296 147.593 97.4439C147.432 97.1581 147.209 96.9348 146.923 96.7738C146.641 96.6088 146.313 96.5263 145.939 96.5263C145.548 96.5263 145.202 96.6168 144.9 96.7979C144.603 96.975 144.369 97.2145 144.2 97.5163C144.031 97.8142 143.945 98.1462 143.941 98.5124V100.028C143.941 100.487 144.025 100.883 144.194 101.217C144.367 101.551 144.611 101.809 144.925 101.99C145.239 102.171 145.611 102.261 146.041 102.261C146.327 102.261 146.589 102.221 146.826 102.141C147.064 102.06 147.267 101.939 147.436 101.778C147.605 101.617 147.734 101.42 147.822 101.187L150.201 101.344C150.08 101.915 149.833 102.414 149.458 102.841C149.088 103.263 148.609 103.594 148.022 103.831C147.438 104.064 146.764 104.181 145.999 104.181ZM156.866 94.7273V96.6591H151.282V94.7273H156.866ZM152.549 92.5057H155.121V101.151C155.121 101.388 155.157 101.573 155.23 101.706C155.302 101.835 155.403 101.925 155.532 101.978C155.664 102.03 155.817 102.056 155.99 102.056C156.111 102.056 156.232 102.046 156.353 102.026C156.473 102.002 156.566 101.984 156.63 101.972L157.035 103.885C156.906 103.926 156.725 103.972 156.491 104.024C156.258 104.08 155.974 104.115 155.64 104.127C155.02 104.151 154.477 104.068 154.01 103.879C153.547 103.69 153.187 103.396 152.93 102.998C152.672 102.599 152.545 102.096 152.549 101.489V92.5057ZM158.541 104V94.7273H161.113V104H158.541ZM159.833 93.532C159.45 93.532 159.122 93.4052 158.849 93.1516C158.579 92.8941 158.444 92.5862 158.444 92.228C158.444 91.8738 158.579 91.57 158.849 91.3164C159.122 91.0588 159.45 90.93 159.833 90.93C160.215 90.93 160.541 91.0588 160.811 91.3164C161.084 91.57 161.221 91.8738 161.221 92.228C161.221 92.5862 161.084 92.8941 160.811 93.1516C160.541 93.4052 160.215 93.532 159.833 93.532ZM165.744 98.6392V104H163.173V94.7273H165.624V96.3633H165.732C165.938 95.824 166.282 95.3974 166.765 95.0835C167.248 94.7655 167.833 94.6065 168.521 94.6065C169.165 94.6065 169.727 94.7474 170.206 95.0291C170.685 95.3108 171.057 95.7133 171.323 96.2365C171.588 96.7557 171.721 97.3755 171.721 98.0959V104H169.149V98.5547C169.153 97.9872 169.008 97.5445 168.715 97.2266C168.421 96.9046 168.016 96.7436 167.501 96.7436C167.155 96.7436 166.849 96.8181 166.584 96.967C166.322 97.1159 166.117 97.3332 165.968 97.619C165.823 97.9007 165.749 98.2408 165.744 98.6392ZM177.926 107.67C177.092 107.67 176.378 107.556 175.782 107.326C175.191 107.101 174.72 106.793 174.37 106.403C174.02 106.012 173.792 105.574 173.688 105.087L176.066 104.767C176.139 104.952 176.253 105.125 176.41 105.286C176.567 105.447 176.774 105.576 177.032 105.672C177.294 105.773 177.612 105.823 177.986 105.823C178.545 105.823 179.006 105.686 179.368 105.413C179.735 105.143 179.918 104.69 179.918 104.054V102.358H179.809C179.696 102.616 179.527 102.859 179.302 103.088C179.077 103.318 178.787 103.505 178.433 103.65C178.078 103.795 177.656 103.867 177.165 103.867C176.469 103.867 175.835 103.706 175.263 103.384C174.696 103.058 174.243 102.561 173.905 101.893C173.571 101.221 173.404 100.372 173.404 99.3455C173.404 98.2951 173.575 97.4177 173.917 96.7134C174.259 96.0091 174.714 95.4819 175.281 95.1317C175.853 94.7816 176.479 94.6065 177.159 94.6065C177.678 94.6065 178.113 94.6951 178.463 94.8722C178.813 95.0452 179.095 95.2625 179.308 95.5241C179.525 95.7817 179.692 96.0353 179.809 96.2848H179.906V94.7273H182.459V104.091C182.459 104.879 182.266 105.539 181.88 106.071C181.493 106.602 180.958 107 180.274 107.266C179.594 107.536 178.811 107.67 177.926 107.67ZM177.98 101.935C178.394 101.935 178.745 101.833 179.03 101.627C179.32 101.418 179.541 101.12 179.694 100.734C179.851 100.344 179.93 99.8768 179.93 99.3335C179.93 98.7901 179.853 98.3192 179.7 97.9208C179.547 97.5183 179.326 97.2064 179.036 96.9851C178.747 96.7637 178.394 96.6531 177.98 96.6531C177.557 96.6531 177.201 96.7678 176.911 96.9972C176.622 97.2225 176.402 97.5365 176.253 97.9389C176.104 98.3414 176.03 98.8062 176.03 99.3335C176.03 99.8687 176.104 100.332 176.253 100.722C176.406 101.108 176.626 101.408 176.911 101.621C177.201 101.831 177.557 101.935 177.98 101.935Z" fill="black"/>
</svg>
